<svg id="Layer_1" data-name="Layer 1" xmlns="http://www.w3.org/2000/svg" width="148.68" height="206.4" viewBox="0 0 148.68 206.4"><defs><style>.cls-1{fill:#ffcd27;}.cls-2{fill:#fff;}.cls-3{fill:#231f20;}</style></defs><title>logo</title><path class="cls-1" d="M447.25,351.28a74.34,74.34,0,0,1-74.34-74.34v-2A8.08,8.08,0,0,1,381,266.9h3.23A8.08,8.08,0,0,1,392.3,275v1.45c0,30.44,24.9,55.66,55.34,55.45a55,55,0,0,0,53.7-45.25h-46a8.08,8.08,0,0,1-8.08-8.08v-3.23a8.08,8.08,0,0,1,8.08-8.08h58.18a8.08,8.08,0,0,1,8.08,8.08v1.62a74.34,74.34,0,0,1-74.34,74.34Z" transform="translate(-372.91 -218.3)"/><circle class="cls-1" cx="42.02" cy="12.93" r="12.93"/><circle class="cls-1" cx="106.66" cy="12.93" r="12.93"/><circle class="cls-2" cx="106.66" cy="12.93" r="5.67"/><path class="cls-3" d="M412.33,395.45h11.39q3.5.13,4.27,1.81a8,8,0,0,1,.65,3.62v14.24a5.66,5.66,0,0,1-1.81,3.95q-5.44,5.63-16.31,5.63a22.69,22.69,0,0,1-16.76-7.28,24.22,24.22,0,0,1-7.12-17.57,22.74,22.74,0,0,1,7.25-17.19,23.95,23.95,0,0,1,31.52-1.85,3.63,3.63,0,0,1,1.75,2.88,6.57,6.57,0,0,1-1.49,3.66q-2.52,3.43-4.6,3.43-1.23,0-3.95-1.78a11.55,11.55,0,0,0-6.47-1.78,12.64,12.64,0,0,0-8.74,3.46,11.66,11.66,0,0,0-3.82,9.06,13,13,0,0,0,3.88,9.51,12.09,12.09,0,0,0,8.8,3.92,16.8,16.8,0,0,0,6.41-1.17V405h-5.11a5.73,5.73,0,0,1-2.85-.52,2.42,2.42,0,0,1-1.1-1.52,11.31,11.31,0,0,1-.26-2.72,10.5,10.5,0,0,1,.29-2.75,2.13,2.13,0,0,1,1.07-1.42A7,7,0,0,1,412.33,395.45Z" transform="translate(-372.91 -218.3)"/><path class="cls-1" d="M444.47,383.64a2.74,2.74,0,0,1-1.72,1.33,13.95,13.95,0,0,1-6.54,0,2.71,2.71,0,0,1-1.72-1.36,5.55,5.55,0,0,1-.58-1.72,25.72,25.72,0,0,1,0-4.47,5.29,5.29,0,0,1,.55-1.65q.91-1.75,5-1.75t4.92,1.75a5.2,5.2,0,0,1,.62,1.72,25.72,25.72,0,0,1,0,4.47A5.22,5.22,0,0,1,444.47,383.64Z" transform="translate(-372.91 -218.3)"/><path class="cls-3" d="M433.82,395.64a18.85,18.85,0,0,1,.1-2.23,6,6,0,0,1,.55-1.72q.91-1.68,5-1.68,3.11,0,4.4,1.1a3.57,3.57,0,0,1,1.17,2.78q.06.65.06,1.88v22.65a18.83,18.83,0,0,1-.1,2.23,5.19,5.19,0,0,1-.62,1.71q-.84,1.68-5,1.68t-5-1.75a6,6,0,0,1-.55-1.68,18.71,18.71,0,0,1-.1-2.27Z" transform="translate(-372.91 -218.3)"/><path class="cls-3" d="M475.05,395.45h11.39q3.5.13,4.27,1.81a8,8,0,0,1,.65,3.62v14.24a5.66,5.66,0,0,1-1.81,3.95q-5.44,5.63-16.31,5.63a22.69,22.69,0,0,1-16.76-7.28,24.22,24.22,0,0,1-7.12-17.57,22.74,22.74,0,0,1,7.25-17.19,23.95,23.95,0,0,1,31.52-1.85,3.63,3.63,0,0,1,1.75,2.88,6.57,6.57,0,0,1-1.49,3.66q-2.52,3.43-4.6,3.43-1.23,0-3.95-1.78a11.55,11.55,0,0,0-6.47-1.78,12.64,12.64,0,0,0-8.74,3.46,11.66,11.66,0,0,0-3.82,9.06,13,13,0,0,0,3.88,9.51,12.09,12.09,0,0,0,8.8,3.92,16.8,16.8,0,0,0,6.41-1.17V405h-5.11a5.73,5.73,0,0,1-2.85-.52,2.42,2.42,0,0,1-1.1-1.52,11.31,11.31,0,0,1-.26-2.72,10.5,10.5,0,0,1,.29-2.75,2.13,2.13,0,0,1,1.07-1.42A7,7,0,0,1,475.05,395.45Z" transform="translate(-372.91 -218.3)"/><path class="cls-1" d="M507.19,383.64a2.74,2.74,0,0,1-1.72,1.33,13.95,13.95,0,0,1-6.54,0,2.71,2.71,0,0,1-1.72-1.36,5.55,5.55,0,0,1-.58-1.72,25.72,25.72,0,0,1,0-4.47,5.29,5.29,0,0,1,.55-1.65q.91-1.75,5-1.75t4.92,1.75a5.2,5.2,0,0,1,.62,1.72,25.72,25.72,0,0,1,0,4.47A5.22,5.22,0,0,1,507.19,383.64Z" transform="translate(-372.91 -218.3)"/><path class="cls-3" d="M496.54,395.64a18.85,18.85,0,0,1,.1-2.23,6,6,0,0,1,.55-1.72q.91-1.68,5-1.68,3.11,0,4.4,1.1a3.57,3.57,0,0,1,1.17,2.78q.06.65.06,1.88v22.65a18.83,18.83,0,0,1-.1,2.23,5.19,5.19,0,0,1-.62,1.71q-.84,1.68-5,1.68t-5-1.75a6,6,0,0,1-.55-1.68,18.71,18.71,0,0,1-.1-2.27Z" transform="translate(-372.91 -218.3)"/></svg>